# xmcd
#
# Track frame offsets: 
#        152
#        22950
#        33915
#        54800
#        80515
#        96220
#        112207
#        133082
#        156207
#        170700
#        189282
#
# Disc length: 2898 seconds
#
# Revision: 3
# Processed by: cddbd v1.5.2PL0 Copyright (c) Steve Scherf et al.
# Submitted via: ExactAudioCopy v1.1
#
DISCID=880b500b,8a0b500b
DTITLE=Buddy Guy - Feels Like Rain
DYEAR=1993
DGENRE=Blues
TTITLE0=She's A Superstar
TTITLE1=I Go Crazy
TTITLE2=Feels Like Rain
TTITLE3=She's Nineteen Years Old
TTITLE4=Some Kind Of Wonderful
TTITLE5=Sufferin' Mind
TTITLE6=Change In The Weather
TTITLE7=I Could Cry
TTITLE8=Mary Ann
TTITLE9=Trouble Man
TTITLE10=Country Man
EXTD=YEAR: 1993 ID3G: 0
EXTT0=
EXTT1=
EXTT2=
EXTT3=
EXTT4=
EXTT5=
EXTT6=
EXTT7=
EXTT8=
EXTT9=
EXTT10=
PLAYORDER=
